<svg aria-hidden="true" style="position: absolute; width: 0; height: 0; overflow: hidden;" version="1.1" xmlns="http://www.w3.org/2000/svg" xmlns:xlink="http://www.w3.org/1999/xlink">
<defs>
<symbol id="icon-alert-circle" viewBox="0 0 24 24">
<title>alert-circle</title>
<path d="M12 1c-6.1 0-11 4.9-11 11s4.9 11 11 11 11-4.9 11-11-4.9-11-11-11zM12 21c-5 0-9-4-9-9s4-9 9-9c5 0 9 4 9 9s-4 9-9 9z"></path>
<path d="M12 7c-0.6 0-1 0.4-1 1v4c0 0.6 0.4 1 1 1s1-0.4 1-1v-4c0-0.6-0.4-1-1-1z"></path>
<path d="M11.3 15.3c-0.2 0.2-0.3 0.4-0.3 0.7s0.1 0.5 0.3 0.7c0.2 0.2 0.4 0.3 0.7 0.3s0.5-0.1 0.7-0.3c0.2-0.2 0.3-0.5 0.3-0.7s-0.1-0.5-0.3-0.7c-0.4-0.4-1-0.4-1.4 0z"></path>
</symbol>
<symbol id="icon-at-sign" viewBox="0 0 24 24">
<title>at-sign</title>
<path d="M12 1c-2.9 0-5.7 1.1-7.8 3.2s-3.2 4.9-3.2 7.8c0 6.1 4.9 11 11 11 2.4 0 4.8-0.8 6.7-2.3 0.4-0.3 0.5-1 0.2-1.4s-1-0.5-1.4-0.2c-1.6 1.2-3.5 1.9-5.5 1.9-5 0-9-4-9-9 0-2.4 0.9-4.7 2.6-6.4s4-2.6 6.4-2.6c5 0 9 4 9 9v1c0 1.1-0.9 2-2 2s-2-0.9-2-2v-5c0-0.6-0.4-1-1-1s-1 0.4-1 1v0c-0.8-0.6-1.9-1-3-1-2.8 0-5 2.2-5 5s2.2 5 5 5c1.5 0 2.8-0.7 3.7-1.7 0.7 1 1.9 1.7 3.3 1.7 2.2 0 4-1.8 4-4v-1c0-6.1-4.9-11-11-11zM12 15c-1.7 0-3-1.3-3-3s1.3-3 3-3 3 1.3 3 3-1.3 3-3 3z"></path>
</symbol>
<symbol id="icon-bell" viewBox="0 0 24 24">
<title>bell</title>
<path d="M14.2 20.1c-0.5-0.3-1.1-0.1-1.4 0.4s-0.9 0.6-1.4 0.4c-0.2-0.1-0.3-0.2-0.4-0.4-0.3-0.5-0.9-0.6-1.4-0.4-0.5 0.3-0.6 0.9-0.4 1.4 0.3 0.5 0.6 0.8 1.1 1.1s1 0.4 1.5 0.4c1 0 2-0.5 2.6-1.5 0.5-0.5 0.3-1.1-0.2-1.4z"></path>
<path d="M22 16c-1.1 0-2-0.9-2-2v-5c0-4.4-3.6-8-8-8s-8 3.6-8 8v5c0 1.1-0.9 2-2 2-0.6 0-1 0.4-1 1s0.4 1 1 1h20c0.6 0 1-0.4 1-1s-0.4-1-1-1zM5.5 16c0.3-0.6 0.5-1.3 0.5-2v-5c0-3.3 2.7-6 6-6s6 2.7 6 6v5c0 0.7 0.2 1.4 0.5 2h-13z"></path>
</symbol>
<symbol id="icon-bell-off" viewBox="0 0 24 24">
<title>bell-off</title>
<path d="M9.1 3.8c2.9-1.6 6.5-0.6 8.2 2.3 0.4 0.8 0.7 1.9 0.7 2.9v4c0 0.6 0.4 1 1 1s1-0.4 1-1v-4c0-1.4-0.4-2.7-1-3.9-2.2-3.8-7.1-5.2-10.9-3-0.5 0.2-0.7 0.8-0.4 1.3s0.9 0.6 1.4 0.4z"></path>
<path d="M14.2 20.1c-0.5-0.3-1.1-0.1-1.4 0.4s-0.9 0.6-1.4 0.4c-0.2-0.1-0.3-0.2-0.4-0.4-0.3-0.5-0.9-0.6-1.4-0.4-0.5 0.3-0.6 0.9-0.4 1.4 0.3 0.5 0.6 0.8 1.1 1.1s1 0.4 1.5 0.4c1 0 2-0.5 2.6-1.5 0.5-0.5 0.3-1.1-0.2-1.4z"></path>
<path d="M23.7 22.3l-6-6c0 0 0 0 0 0l-16-16c-0.4-0.4-1-0.4-1.4 0s-0.4 1 0 1.4l4.3 4.3c-0.4 1-0.6 2-0.6 3v5c0 1.1-0.9 2-2 2-0.6 0-1 0.4-1 1s0.4 1 1 1h14.6l5.7 5.7c0.2 0.2 0.5 0.3 0.7 0.3s0.5-0.1 0.7-0.3c0.4-0.4 0.4-1 0-1.4zM5.5 16c0.3-0.6 0.5-1.3 0.5-2v-5c0-0.5 0.1-1 0.2-1.4l8.4 8.4h-9.1z"></path>
</symbol>
<symbol id="icon-check" viewBox="0 0 24 24">
<title>check</title>
<path d="M20.7 5.3c-0.4-0.4-1-0.4-1.4 0l-10.3 10.3-4.3-4.3c-0.4-0.4-1-0.4-1.4 0s-0.4 1 0 1.4l5 5c0.2 0.2 0.4 0.3 0.7 0.3s0.5-0.1 0.7-0.3l11-11c0.4-0.4 0.4-1 0-1.4z"></path>
</symbol>
<symbol id="icon-check-circle" viewBox="0 0 24 24">
<title>check-circle</title>
<path d="M22 10.1c-0.6 0-1 0.4-1 1v0.9c0 5-4 9-9 9 0 0 0 0 0 0-5 0-9-4-9-9s4-9 9-9c0 0 0 0 0 0 1.3 0 2.5 0.3 3.7 0.8 0.5 0.2 1.1 0 1.3-0.5s0-1.1-0.5-1.3c-1.4-0.6-2.9-1-4.5-1 0 0 0 0 0 0-6.1 0-11 4.9-11 11s4.9 11 11 11c0 0 0 0 0 0 6.1 0 11-4.9 11-11v-0.9c0-0.6-0.4-1-1-1z"></path>
<path d="M9.7 10.3c-0.4-0.4-1-0.4-1.4 0s-0.4 1 0 1.4l3 3c0.2 0.2 0.4 0.3 0.7 0.3s0.5-0.1 0.7-0.3l10-10c0.4-0.4 0.4-1 0-1.4s-1-0.4-1.4 0l-9.3 9.3-2.3-2.3z"></path>
</symbol>
<symbol id="icon-check-square" viewBox="0 0 24 24">
<title>check-square</title>
<path d="M22.7 3.3c-0.4-0.4-1-0.4-1.4 0l-9.3 9.3-2.3-2.3c-0.4-0.4-1-0.4-1.4 0s-0.4 1 0 1.4l3 3c0.2 0.2 0.5 0.3 0.7 0.3s0.5-0.1 0.7-0.3l10-10c0.4-0.4 0.4-1 0-1.4z"></path>
<path d="M21 11c-0.6 0-1 0.4-1 1v7c0 0.6-0.4 1-1 1h-14c-0.6 0-1-0.4-1-1v-14c0-0.6 0.4-1 1-1h11c0.6 0 1-0.4 1-1s-0.4-1-1-1h-11c-1.7 0-3 1.3-3 3v14c0 1.7 1.3 3 3 3h14c1.7 0 3-1.3 3-3v-7c0-0.6-0.4-1-1-1z"></path>
</symbol>
<symbol id="icon-chevron-down" viewBox="0 0 24 24">
<title>chevron-down</title>
<path d="M18.7 8.3c-0.4-0.4-1-0.4-1.4 0l-5.3 5.3-5.3-5.3c-0.4-0.4-1-0.4-1.4 0s-0.4 1 0 1.4l6 6c0.2 0.2 0.5 0.3 0.7 0.3s0.5-0.1 0.7-0.3l6-6c0.4-0.4 0.4-1 0-1.4z"></path>
</symbol>
<symbol id="icon-chevron-left" viewBox="0 0 24 24">
<title>chevron-left</title>
<path d="M10.4 12l5.3-5.3c0.4-0.4 0.4-1 0-1.4s-1-0.4-1.4 0l-6 6c-0.4 0.4-0.4 1 0 1.4l6 6c0.2 0.2 0.5 0.3 0.7 0.3s0.5-0.1 0.7-0.3c0.4-0.4 0.4-1 0-1.4l-5.3-5.3z"></path>
</symbol>
<symbol id="icon-chevron-right" viewBox="0 0 24 24">
<title>chevron-right</title>
<path d="M15.7 11.3l-6-6c-0.4-0.4-1-0.4-1.4 0s-0.4 1 0 1.4l5.3 5.3-5.3 5.3c-0.4 0.4-0.4 1 0 1.4 0.2 0.2 0.4 0.3 0.7 0.3s0.5-0.1 0.7-0.3l6-6c0.4-0.4 0.4-1 0-1.4z"></path>
</symbol>
<symbol id="icon-chevron-up" viewBox="0 0 24 24">
<title>chevron-up</title>
<path d="M18.7 14.3l-6-6c-0.4-0.4-1-0.4-1.4 0l-6 6c-0.4 0.4-0.4 1 0 1.4s1 0.4 1.4 0l5.3-5.3 5.3 5.3c0.2 0.2 0.5 0.3 0.7 0.3s0.5-0.1 0.7-0.3c0.4-0.4 0.4-1 0-1.4z"></path>
</symbol>
<symbol id="icon-circle" viewBox="0 0 24 24">
<title>circle</title>
<path d="M12 1c-6.1 0-11 4.9-11 11s4.9 11 11 11 11-4.9 11-11-4.9-11-11-11zM12 21c-5 0-9-4-9-9s4-9 9-9c5 0 9 4 9 9s-4 9-9 9z"></path>
</symbol>
<symbol id="icon-clock" viewBox="0 0 24 24">
<title>clock</title>
<path d="M12 1c-6.1 0-11 4.9-11 11s4.9 11 11 11 11-4.9 11-11-4.9-11-11-11zM12 21c-5 0-9-4-9-9s4-9 9-9c5 0 9 4 9 9s-4 9-9 9z"></path>
<path d="M16.4 13.1l-3.4-1.7v-5.4c0-0.6-0.4-1-1-1s-1 0.4-1 1v6c0 0.4 0.2 0.7 0.6 0.9l4 2c0.1 0.1 0.2 0.1 0.4 0.1 0.4 0 0.7-0.2 0.9-0.6s0-1-0.5-1.3z"></path>
</symbol>
<symbol id="icon-copy" viewBox="0 0 24 24">
<title>copy</title>
<path d="M20 8h-9c-1.7 0-3 1.3-3 3v9c0 1.7 1.3 3 3 3h9c1.7 0 3-1.3 3-3v-9c0-1.7-1.3-3-3-3zM21 20c0 0.6-0.4 1-1 1h-9c-0.6 0-1-0.4-1-1v-9c0-0.6 0.4-1 1-1h9c0.6 0 1 0.4 1 1v9z"></path>
<path d="M5 14h-1c-0.6 0-1-0.4-1-1v-9c0-0.6 0.4-1 1-1h9c0.6 0 1 0.4 1 1v1c0 0.6 0.4 1 1 1s1-0.4 1-1v-1c0-1.7-1.3-3-3-3h-9c-1.7 0-3 1.3-3 3v9c0 1.7 1.3 3 3 3h1c0.6 0 1-0.4 1-1s-0.4-1-1-1z"></path>
</symbol>
<symbol id="icon-database" viewBox="0 0 24 24">
<title>database</title>
<path d="M12 1c-4.8 0-10 1.3-10 4v14c0 2.7 5.2 4 10 4s10-1.3 10-4v-14c0-2.7-5.2-4-10-4zM20 12c0 0.5-2.5 2-8 2s-8-1.5-8-2v-4.5c1.9 1 5 1.5 8 1.5s6.1-0.5 8-1.5v4.5zM12 3c5.2 0 8 1.5 8 2s-2.8 2-8 2c-5.2 0-8-1.5-8-2s2.8-2 8-2zM12 21c-5.5 0-8-1.5-8-2v-4.5c1.9 1 5 1.5 8 1.5s6.1-0.5 8-1.5v4.5c0 0.5-2.5 2-8 2z"></path>
</symbol>
<symbol id="icon-dollar-sign" viewBox="0 0 24 24">
<title>dollar-sign</title>
<path d="M14.5 11h-1.5v-5h4c0.6 0 1-0.4 1-1s-0.4-1-1-1h-4v-3c0-0.6-0.4-1-1-1s-1 0.4-1 1v3h-1.5c-2.5 0-4.5 2-4.5 4.5s2 4.5 4.5 4.5h1.5v5h-5c-0.6 0-1 0.4-1 1s0.4 1 1 1h5v3c0 0.6 0.4 1 1 1s1-0.4 1-1v-3h1.5c2.5 0 4.5-2 4.5-4.5s-2-4.5-4.5-4.5zM9.5 11c-1.4 0-2.5-1.1-2.5-2.5s1.1-2.5 2.5-2.5h1.5v5h-1.5zM14.5 18h-1.5v-5h1.5c1.4 0 2.5 1.1 2.5 2.5s-1.1 2.5-2.5 2.5z"></path>
</symbol>
<symbol id="icon-download" viewBox="0 0 24 24">
<title>download</title>
<path d="M21 14c-0.6 0-1 0.4-1 1v4c0 0.6-0.4 1-1 1h-14c-0.6 0-1-0.4-1-1v-4c0-0.6-0.4-1-1-1s-1 0.4-1 1v4c0 1.7 1.3 3 3 3h14c1.7 0 3-1.3 3-3v-4c0-0.6-0.4-1-1-1z"></path>
<path d="M11.3 15.7c0.1 0.1 0.2 0.2 0.3 0.2 0.1 0.1 0.3 0.1 0.4 0.1s0.3 0 0.4-0.1c0.1-0.1 0.2-0.1 0.3-0.2l5-5c0.4-0.4 0.4-1 0-1.4s-1-0.4-1.4 0l-3.3 3.3v-9.6c0-0.6-0.4-1-1-1s-1 0.4-1 1v9.6l-3.3-3.3c-0.4-0.4-1-0.4-1.4 0s-0.4 1 0 1.4l5 5z"></path>
</symbol>
<symbol id="icon-edit" viewBox="0 0 24 24">
<title>edit</title>
<path d="M20 13.7c-0.6 0-1 0.4-1 1v5.3c0 0.6-0.4 1-1 1h-14c-0.6 0-1-0.4-1-1v-14c0-0.6 0.4-1 1-1h5.3c0.6 0 1-0.4 1-1s-0.4-1-1-1h-5.3c-1.7 0-3 1.3-3 3v14c0 1.7 1.3 3 3 3h14c1.7 0 3-1.3 3-3v-5.3c0-0.6-0.4-1-1-1z"></path>
<path d="M22.7 5.3l-4-4c-0.4-0.4-1-0.4-1.4 0l-10 10c-0.2 0.2-0.3 0.4-0.3 0.7v4c0 0.6 0.4 1 1 1h4c0.3 0 0.5-0.1 0.7-0.3l10-10c0.4-0.4 0.4-1 0-1.4zM11.6 15h-2.6v-2.6l9-9 2.6 2.6-9 9z"></path>
</symbol>
<symbol id="icon-edit-2" viewBox="0 0 24 24">
<title>edit-2</title>
<path d="M21.7 7.3l-5-5c-0.4-0.4-1-0.4-1.4 0l-13 13c-0.2 0.2-0.3 0.4-0.3 0.7v5c0 0.6 0.4 1 1 1h5c0.3 0 0.5-0.1 0.7-0.3l13-13c0.4-0.4 0.4-1 0-1.4zM7.6 20h-3.6v-3.6l12-12 3.6 3.6-12 12z"></path>
</symbol>
<symbol id="icon-edit-3" viewBox="0 0 24 24">
<title>edit-3</title>
<path d="M3 18h4c0.3 0 0.5-0.1 0.7-0.3l11-11c0.4-0.4 0.4-1 0-1.4l-4-4c-0.4-0.4-1-0.4-1.4 0l-11 11c-0.2 0.2-0.3 0.4-0.3 0.7v4c0 0.6 0.4 1 1 1zM4 13.4l10-10 2.6 2.6-10 10h-2.6v-2.6z"></path>
<path d="M21 21h-18c-0.6 0-1 0.4-1 1s0.4 1 1 1h18c0.6 0 1-0.4 1-1s-0.4-1-1-1z"></path>
</symbol>
<symbol id="icon-file" viewBox="0 0 24 24">
<title>file</title>
<path d="M20.9 8.6c-0.1-0.1-0.1-0.2-0.2-0.3l-7-7c-0.1-0.1-0.2-0.2-0.3-0.2-0.1-0.1-0.3-0.1-0.4-0.1h-7c-1.7 0-3 1.3-3 3v16c0 1.7 1.3 3 3 3h12c1.7 0 3-1.3 3-3v-11c0-0.1 0-0.3-0.1-0.4zM14 4.4l3.6 3.6h-3.6v-3.6zM18 21h-12c-0.6 0-1-0.4-1-1v-16c0-0.6 0.4-1 1-1h6v6c0 0.6 0.4 1 1 1h6v10c0 0.6-0.4 1-1 1z"></path>
</symbol>
<symbol id="icon-file-minus" viewBox="0 0 24 24">
<title>file-minus</title>
<path d="M20.9 7.6c-0.1-0.1-0.1-0.2-0.2-0.3l-6-6c-0.1-0.1-0.2-0.2-0.3-0.2-0.1-0.1-0.3-0.1-0.4-0.1h-8c-1.7 0-3 1.3-3 3v16c0 1.7 1.3 3 3 3h12c1.7 0 3-1.3 3-3v-12c0-0.1 0-0.3-0.1-0.4zM15 4.4l2.6 2.6h-2.6v-2.6zM18 21h-12c-0.6 0-1-0.4-1-1v-16c0-0.6 0.4-1 1-1h7v5c0 0.6 0.4 1 1 1h5v11c0 0.6-0.4 1-1 1z"></path>
<path d="M15 14h-6c-0.6 0-1 0.4-1 1s0.4 1 1 1h6c0.6 0 1-0.4 1-1s-0.4-1-1-1z"></path>
</symbol>
<symbol id="icon-file-plus" viewBox="0 0 24 24">
<title>file-plus</title>
<path d="M20.9 7.6c-0.1-0.1-0.1-0.2-0.2-0.3l-6-6c-0.1-0.1-0.2-0.2-0.3-0.2-0.1-0.1-0.3-0.1-0.4-0.1h-8c-1.7 0-3 1.3-3 3v16c0 1.7 1.3 3 3 3h12c1.7 0 3-1.3 3-3v-12c0-0.1 0-0.3-0.1-0.4zM15 4.4l2.6 2.6h-2.6v-2.6zM18 21h-12c-0.6 0-1-0.4-1-1v-16c0-0.6 0.4-1 1-1h7v5c0 0.6 0.4 1 1 1h5v11c0 0.6-0.4 1-1 1z"></path>
<path d="M15 14h-2v-2c0-0.6-0.4-1-1-1s-1 0.4-1 1v2h-2c-0.6 0-1 0.4-1 1s0.4 1 1 1h2v2c0 0.6 0.4 1 1 1s1-0.4 1-1v-2h2c0.6 0 1-0.4 1-1s-0.4-1-1-1z"></path>
</symbol>
<symbol id="icon-file-text" viewBox="0 0 24 24">
<title>file-text</title>
<path d="M20.9 7.6c-0.1-0.1-0.1-0.2-0.2-0.3l-6-6c-0.1-0.1-0.2-0.2-0.3-0.2-0.1-0.1-0.3-0.1-0.4-0.1h-8c-1.7 0-3 1.3-3 3v16c0 1.7 1.3 3 3 3h12c1.7 0 3-1.3 3-3v-12c0-0.1 0-0.3-0.1-0.4zM15 4.4l2.6 2.6h-2.6v-2.6zM18 21h-12c-0.6 0-1-0.4-1-1v-16c0-0.6 0.4-1 1-1h7v5c0 0.6 0.4 1 1 1h5v11c0 0.6-0.4 1-1 1z"></path>
<path d="M16 12h-8c-0.6 0-1 0.4-1 1s0.4 1 1 1h8c0.6 0 1-0.4 1-1s-0.4-1-1-1z"></path>
<path d="M16 16h-8c-0.6 0-1 0.4-1 1s0.4 1 1 1h8c0.6 0 1-0.4 1-1s-0.4-1-1-1z"></path>
<path d="M8 10h2c0.6 0 1-0.4 1-1s-0.4-1-1-1h-2c-0.6 0-1 0.4-1 1s0.4 1 1 1z"></path>
</symbol>
<symbol id="icon-filter" viewBox="0 0 24 24">
<title>filter</title>
<path d="M22.9 2.6c-0.2-0.4-0.5-0.6-0.9-0.6h-20c-0.4 0-0.7 0.2-0.9 0.6-0.2 0.3-0.1 0.7 0.1 1l7.8 9.2v6.2c0 0.4 0.2 0.7 0.6 0.9l4 2c0.1 0.1 0.2 0.1 0.4 0.1s0.4 0 0.5-0.1c0.3-0.2 0.5-0.5 0.5-0.9v-8.2l7.8-9.2c0.2-0.3 0.3-0.7 0.1-1zM13.2 11.8c-0.1 0.2-0.2 0.4-0.2 0.7v6.9l-2-1v-5.9c0-0.2-0.1-0.5-0.2-0.6l-6.6-7.9h15.7l-6.7 7.8z"></path>
</symbol>
<symbol id="icon-flag" viewBox="0 0 24 24">
<title>flag</title>
<path d="M20.4 2.1c-0.4-0.2-0.8-0.1-1.1 0.2 0 0-0.9 0.7-3.3 0.7-1.3 0-2.4-0.5-3.6-0.9-1.3-0.6-2.7-1.1-4.4-1.1-3.2 0-4.5 1.1-4.7 1.3s-0.3 0.4-0.3 0.7v19c0 0.6 0.4 1 1 1s1-0.4 1-1v-6.5c0.4-0.2 1.4-0.5 3-0.5 1.3 0 2.4 0.5 3.6 0.9 1.3 0.5 2.7 1.1 4.4 1.1 3.2 0 4.5-1.1 4.7-1.3s0.3-0.4 0.3-0.7v-12c0-0.4-0.2-0.7-0.6-0.9zM19 14.5c-0.4 0.2-1.4 0.5-3 0.5-1.3 0-2.4-0.5-3.6-0.9-1.3-0.6-2.7-1.1-4.4-1.1-1.3 0-2.3 0.2-3 0.4v-9.9c0.4-0.2 1.4-0.5 3-0.5 1.3 0 2.4 0.5 3.6 0.9 1.3 0.6 2.7 1.1 4.4 1.1 1.3 0 2.3-0.2 3-0.4v9.9z"></path>
</symbol>
<symbol id="icon-folder" viewBox="0 0 24 24">
<title>folder</title>
<path d="M20 5h-8.5l-1.7-2.6c-0.2-0.2-0.5-0.4-0.8-0.4h-5c-1.7 0-3 1.3-3 3v14c0 1.7 1.3 3 3 3h16c1.7 0 3-1.3 3-3v-11c0-1.7-1.3-3-3-3zM21 19c0 0.6-0.4 1-1 1h-16c-0.6 0-1-0.4-1-1v-14c0-0.6 0.4-1 1-1h4.5l1.7 2.6c0.2 0.2 0.5 0.4 0.8 0.4h9c0.6 0 1 0.4 1 1v11z"></path>
</symbol>
<symbol id="icon-folder-minus" viewBox="0 0 24 24">
<title>folder-minus</title>
<path d="M20 5h-8.5l-1.7-2.6c-0.2-0.2-0.5-0.4-0.8-0.4h-5c-1.7 0-3 1.3-3 3v14c0 1.7 1.3 3 3 3h16c1.7 0 3-1.3 3-3v-11c0-1.7-1.3-3-3-3zM21 19c0 0.6-0.4 1-1 1h-16c-0.6 0-1-0.4-1-1v-14c0-0.6 0.4-1 1-1h4.5l1.7 2.6c0.2 0.2 0.5 0.4 0.8 0.4h9c0.6 0 1 0.4 1 1v11z"></path>
<path d="M15 13h-6c-0.6 0-1 0.4-1 1s0.4 1 1 1h6c0.6 0 1-0.4 1-1s-0.4-1-1-1z"></path>
</symbol>
<symbol id="icon-folder-plus" viewBox="0 0 24 24">
<title>folder-plus</title>
<path d="M20 5h-8.5l-1.7-2.6c-0.2-0.2-0.5-0.4-0.8-0.4h-5c-1.7 0-3 1.3-3 3v14c0 1.7 1.3 3 3 3h16c1.7 0 3-1.3 3-3v-11c0-1.7-1.3-3-3-3zM21 19c0 0.6-0.4 1-1 1h-16c-0.6 0-1-0.4-1-1v-14c0-0.6 0.4-1 1-1h4.5l1.7 2.6c0.2 0.2 0.5 0.4 0.8 0.4h9c0.6 0 1 0.4 1 1v11z"></path>
<path d="M15 13h-2v-2c0-0.6-0.4-1-1-1s-1 0.4-1 1v2h-2c-0.6 0-1 0.4-1 1s0.4 1 1 1h2v2c0 0.6 0.4 1 1 1s1-0.4 1-1v-2h2c0.6 0 1-0.4 1-1s-0.4-1-1-1z"></path>
</symbol>
<symbol id="icon-hard-drive" viewBox="0 0 24 24">
<title>hard-drive</title>
<path d="M22.9 11.6c0 0 0 0 0 0l-3.5-6.9c-0.5-1-1.5-1.7-2.7-1.7h-9.5c-1.1 0-2.1 0.6-2.6 1.7l-3.4 6.9c0 0 0 0 0 0-0.2 0.1-0.2 0.2-0.2 0.4v6c0 1.7 1.3 3 3 3h16c1.7 0 3-1.3 3-3v-6c0-0.2 0-0.3-0.1-0.4zM6.3 5.6c0 0 0 0 0 0 0.2-0.4 0.6-0.6 0.9-0.6h9.5c0.4 0 0.7 0.2 0.9 0.6l2.7 5.4h-16.7l2.7-5.4zM20 19h-16c-0.6 0-1-0.4-1-1v-5h18v5c0 0.6-0.4 1-1 1z"></path>
<path d="M5.3 15.3c-0.2 0.2-0.3 0.4-0.3 0.7s0.1 0.5 0.3 0.7c0.2 0.2 0.4 0.3 0.7 0.3s0.5-0.1 0.7-0.3c0.2-0.2 0.3-0.4 0.3-0.7s-0.1-0.5-0.3-0.7c-0.4-0.4-1-0.4-1.4 0z"></path>
<path d="M9.3 15.3c-0.2 0.2-0.3 0.4-0.3 0.7s0.1 0.5 0.3 0.7c0.2 0.2 0.4 0.3 0.7 0.3s0.5-0.1 0.7-0.3c0.2-0.2 0.3-0.5 0.3-0.7s-0.1-0.5-0.3-0.7c-0.4-0.4-1-0.4-1.4 0z"></path>
</symbol>
<symbol id="icon-heart" viewBox="0 0 24 24">
<title>heart</title>
<path d="M21.5 3.9v0c-1.2-1.2-2.8-1.9-4.5-1.9v0c-1.7 0-3.4 0.7-4.6 1.9 0 0 0 0 0 0l-0.4 0.4-0.4-0.4c-1.2-1.2-2.8-1.9-4.6-1.9-1.7 0-3.3 0.7-4.5 1.9s-2 2.9-2 4.6 0.7 3.4 1.9 4.6l8.8 8.8c0.2 0.2 0.4 0.3 0.7 0.3s0.5-0.1 0.7-0.3l8.8-8.8c2.7-2.5 2.7-6.7 0.1-9.2zM20.1 11.7l-8.1 8.1-8.1-8.1c-1.8-1.8-1.8-4.6 0-6.4 0.8-0.9 2-1.3 3.1-1.3 1.2 0 2.3 0.4 3.2 1.3l1.1 1.1c0.4 0.4 1 0.4 1.4 0l1-1.1c0 0 0 0 0 0 0.9-0.8 2-1.3 3.3-1.3 0 0 0 0 0 0 1.2 0 2.3 0.5 3.2 1.3v0c0.8 0.9 1.3 2 1.3 3.2s-0.5 2.3-1.4 3.2z"></path>
</symbol>
<symbol id="icon-help-circle" viewBox="0 0 24 24">
<title>help-circle</title>
<path d="M13.2 6.2c-2.1-0.7-4.4 0.4-5.1 2.4-0.1 0.6 0.1 1.2 0.7 1.3 0.5 0.2 1.1-0.1 1.3-0.6 0.4-1 1.5-1.6 2.6-1.2 0.8 0.3 1.3 1 1.3 1.9 0 1-1.7 1.8-2.3 2.1-0.5 0.2-0.8 0.7-0.6 1.3 0.1 0.4 0.5 0.7 0.9 0.7 0.1 0 0.2 0 0.3-0.1 0.4-0.1 3.7-1.3 3.7-3.9-0.1-1.8-1.2-3.3-2.8-3.9z"></path>
<path d="M12 1c-6.1 0-11 4.9-11 11s4.9 11 11 11 11-4.9 11-11-4.9-11-11-11zM12 21c-5 0-9-4-9-9s4-9 9-9c5 0 9 4 9 9s-4 9-9 9z"></path>
<path d="M11.3 16.3c-0.2 0.2-0.3 0.4-0.3 0.7s0.1 0.5 0.3 0.7c0.2 0.2 0.4 0.3 0.7 0.3s0.5-0.1 0.7-0.3c0.2-0.2 0.3-0.5 0.3-0.7s-0.1-0.5-0.3-0.7c-0.4-0.4-1-0.4-1.4 0z"></path>
</symbol>
<symbol id="icon-home" viewBox="0 0 24 24">
<title>home</title>
<path d="M21.6 8.2l-9-7c-0.4-0.3-0.9-0.3-1.2 0l-9 7c-0.3 0.2-0.4 0.5-0.4 0.8v11c0 1.7 1.3 3 3 3h14c1.7 0 3-1.3 3-3v-11c0-0.3-0.1-0.6-0.4-0.8zM14 21h-4v-8h4v8zM20 20c0 0.6-0.4 1-1 1h-3v-9c0-0.6-0.4-1-1-1h-6c-0.6 0-1 0.4-1 1v9h-3c-0.6 0-1-0.4-1-1v-10.5l8-6.2 8 6.2v10.5z"></path>
</symbol>
<symbol id="icon-info" viewBox="0 0 24 24">
<title>info</title>
<path d="M12 1c-6.1 0-11 4.9-11 11s4.9 11 11 11 11-4.9 11-11-4.9-11-11-11zM12 21c-5 0-9-4-9-9s4-9 9-9c5 0 9 4 9 9s-4 9-9 9z"></path>
<path d="M12 11c-0.6 0-1 0.4-1 1v4c0 0.6 0.4 1 1 1s1-0.4 1-1v-4c0-0.6-0.4-1-1-1z"></path>
<path d="M11.3 7.3c-0.2 0.2-0.3 0.4-0.3 0.7s0.1 0.5 0.3 0.7c0.2 0.2 0.4 0.3 0.7 0.3s0.5-0.1 0.7-0.3c0.2-0.2 0.3-0.4 0.3-0.7s-0.1-0.5-0.3-0.7c-0.4-0.4-1-0.4-1.4 0z"></path>
</symbol>
<symbol id="icon-lock" viewBox="0 0 24 24">
<title>lock</title>
<path d="M19 10h-1v-3c0-3.3-2.7-6-6-6s-6 2.7-6 6v3h-1c-1.7 0-3 1.3-3 3v7c0 1.7 1.3 3 3 3h14c1.7 0 3-1.3 3-3v-7c0-1.7-1.3-3-3-3zM8 7c0-2.2 1.8-4 4-4s4 1.8 4 4v3h-8v-3zM20 20c0 0.6-0.4 1-1 1h-14c-0.6 0-1-0.4-1-1v-7c0-0.6 0.4-1 1-1h14c0.6 0 1 0.4 1 1v7z"></path>
</symbol>
<symbol id="icon-mail" viewBox="0 0 24 24">
<title>mail</title>
<path d="M20 3h-16c-1.7 0-3 1.3-3 3v12c0 1.7 1.3 3 3 3h16c1.7 0 3-1.3 3-3v-12c0-1.7-1.3-3-3-3zM4 5h16c0.4 0 0.7 0.2 0.9 0.6l-8.9 6.2-8.9-6.2c0.2-0.4 0.5-0.6 0.9-0.6zM20 19h-16c-0.6 0-1-0.4-1-1v-10.1l8.4 5.9c0.2 0.1 0.4 0.2 0.6 0.2s0.4-0.1 0.6-0.2l8.4-5.9v10.1c0 0.6-0.4 1-1 1z"></path>
</symbol>
<symbol id="icon-minus" viewBox="0 0 24 24">
<title>minus</title>
<path d="M19 11h-14c-0.6 0-1 0.4-1 1s0.4 1 1 1h14c0.6 0 1-0.4 1-1s-0.4-1-1-1z"></path>
</symbol>
<symbol id="icon-minus-circle" viewBox="0 0 24 24">
<title>minus-circle</title>
<path d="M12 1c-6.1 0-11 4.9-11 11s4.9 11 11 11 11-4.9 11-11-4.9-11-11-11zM12 21c-5 0-9-4-9-9s4-9 9-9c5 0 9 4 9 9s-4 9-9 9z"></path>
<path d="M16 11h-8c-0.6 0-1 0.4-1 1s0.4 1 1 1h8c0.6 0 1-0.4 1-1s-0.4-1-1-1z"></path>
</symbol>
<symbol id="icon-minus-square" viewBox="0 0 24 24">
<title>minus-square</title>
<path d="M19 2h-14c-1.7 0-3 1.3-3 3v14c0 1.7 1.3 3 3 3h14c1.7 0 3-1.3 3-3v-14c0-1.7-1.3-3-3-3zM20 19c0 0.6-0.4 1-1 1h-14c-0.6 0-1-0.4-1-1v-14c0-0.6 0.4-1 1-1h14c0.6 0 1 0.4 1 1v14z"></path>
<path d="M16 11h-8c-0.6 0-1 0.4-1 1s0.4 1 1 1h8c0.6 0 1-0.4 1-1s-0.4-1-1-1z"></path>
</symbol>
<symbol id="icon-more-horizontal" viewBox="0 0 24 24">
<title>more-horizontal</title>
<path d="M14 12c0 1.105-0.895 2-2 2s-2-0.895-2-2c0-1.105 0.895-2 2-2s2 0.895 2 2z"></path>
<path d="M21 12c0 1.105-0.895 2-2 2s-2-0.895-2-2c0-1.105 0.895-2 2-2s2 0.895 2 2z"></path>
<path d="M7 12c0 1.105-0.895 2-2 2s-2-0.895-2-2c0-1.105 0.895-2 2-2s2 0.895 2 2z"></path>
</symbol>
<symbol id="icon-paperclip" viewBox="0 0 24 24">
<title>paperclip</title>
<path d="M22.1 10.3c-0.4-0.4-1-0.4-1.4 0l-9.2 9.2c-2 2-5.1 2-7.1 0s-2-5.1 0-7.1l9.2-9.2c1.1-1.1 3.1-1.1 4.2 0 1.2 1.2 1.2 3.1 0 4.2l-9.2 9.2c-0.4 0.4-1 0.4-1.4 0-0.1-0.1-0.2-0.3-0.2-0.6s0.1-0.5 0.3-0.7l8.5-8.5c0.4-0.4 0.4-1 0-1.4s-1-0.4-1.4 0l-8.5 8.5c-0.6 0.5-0.9 1.3-0.9 2.1s0.3 1.6 0.9 2.1c1.2 1.2 3.1 1.2 4.2 0l9.2-9.2c2-2 2-5.1 0-7.1-0.9-0.9-2.2-1.5-3.5-1.5s-2.6 0.5-3.5 1.5l-9.2 9.2c-2.7 2.7-2.7 7.2 0 9.9 1.4 1.4 3.2 2 5 2s3.6-0.7 5-2l9.2-9.2c0.2-0.3 0.2-1-0.2-1.4z"></path>
</symbol>
<symbol id="icon-plus" viewBox="0 0 24 24">
<title>plus</title>
<path d="M19 11h-6v-6c0-0.6-0.4-1-1-1s-1 0.4-1 1v6h-6c-0.6 0-1 0.4-1 1s0.4 1 1 1h6v6c0 0.6 0.4 1 1 1s1-0.4 1-1v-6h6c0.6 0 1-0.4 1-1s-0.4-1-1-1z"></path>
</symbol>
<symbol id="icon-plus-circle" viewBox="0 0 24 24">
<title>plus-circle</title>
<path d="M12 1c-6.1 0-11 4.9-11 11s4.9 11 11 11 11-4.9 11-11-4.9-11-11-11zM12 21c-5 0-9-4-9-9s4-9 9-9c5 0 9 4 9 9s-4 9-9 9z"></path>
<path d="M16 11h-3v-3c0-0.6-0.4-1-1-1s-1 0.4-1 1v3h-3c-0.6 0-1 0.4-1 1s0.4 1 1 1h3v3c0 0.6 0.4 1 1 1s1-0.4 1-1v-3h3c0.6 0 1-0.4 1-1s-0.4-1-1-1z"></path>
</symbol>
<symbol id="icon-plus-square" viewBox="0 0 24 24">
<title>plus-square</title>
<path d="M19 2h-14c-1.7 0-3 1.3-3 3v14c0 1.7 1.3 3 3 3h14c1.7 0 3-1.3 3-3v-14c0-1.7-1.3-3-3-3zM20 19c0 0.6-0.4 1-1 1h-14c-0.6 0-1-0.4-1-1v-14c0-0.6 0.4-1 1-1h14c0.6 0 1 0.4 1 1v14z"></path>
<path d="M16 11h-3v-3c0-0.6-0.4-1-1-1s-1 0.4-1 1v3h-3c-0.6 0-1 0.4-1 1s0.4 1 1 1h3v3c0 0.6 0.4 1 1 1s1-0.4 1-1v-3h3c0.6 0 1-0.4 1-1s-0.4-1-1-1z"></path>
</symbol>
<symbol id="icon-power" viewBox="0 0 24 24">
<title>power</title>
<path d="M19.1 5.9c-0.4-0.4-1-0.4-1.4 0s-0.4 1 0 1.4c3.1 3.1 3.1 8.2 0 11.3s-8.2 3.1-11.3 0c-3.1-3.1-3.1-8.2 0-11.3 0.4-0.4 0.4-1 0-1.4s-1-0.4-1.4 0c-4 3.9-4 10.3-0.1 14.2 2 1.9 4.5 2.9 7.1 2.9s5.1-1 7.1-2.9c3.9-3.9 3.9-10.3 0-14.2z"></path>
<path d="M12 13c0.6 0 1-0.4 1-1v-10c0-0.6-0.4-1-1-1s-1 0.4-1 1v10c0 0.6 0.4 1 1 1z"></path>
</symbol>
<symbol id="icon-printer" viewBox="0 0 24 24">
<title>printer</title>
<path d="M20 8h-1v-6c0-0.6-0.4-1-1-1h-12c-0.6 0-1 0.4-1 1v6h-1c-1.7 0-3 1.3-3 3v5c0 1.7 1.3 3 3 3h1v3c0 0.6 0.4 1 1 1h12c0.6 0 1-0.4 1-1v-3h1c1.7 0 3-1.3 3-3v-5c0-1.7-1.3-3-3-3zM7 3h10v5h-10v-5zM17 21h-10v-6h10v6zM21 16c0 0.6-0.4 1-1 1h-1v-3c0-0.6-0.4-1-1-1h-12c-0.6 0-1 0.4-1 1v3h-1c-0.6 0-1-0.4-1-1v-5c0-0.6 0.4-1 1-1h16c0.6 0 1 0.4 1 1v5z"></path>
</symbol>
<symbol id="icon-rotate-ccw" viewBox="0 0 24 24">
<title>rotate-ccw</title>
<path d="M21.4 8.7c-0.9-2.5-2.7-4.5-5.1-5.7s-5.1-1.3-7.6-0.4c-1.4 0.5-2.7 1.3-3.7 2.3l-3 2.8v-3.7c0-0.6-0.4-1-1-1s-1 0.4-1 1v6c0 0 0 0.1 0 0.1 0 0.1 0 0.2 0 0.2 0 0.1 0.1 0.1 0.1 0.2 0 0 0 0.1 0.1 0.1 0 0 0 0 0 0 0.1 0.1 0.1 0.1 0.2 0.1 0 0 0.1 0.1 0.1 0.1s0.1 0 0.1 0 0.2 0 0.2 0c0 0 0 0 0 0h6c0.6 0 1-0.4 1-1s-0.2-0.8-0.8-0.8h-3.5l2.8-2.7c0.8-0.8 1.9-1.5 3-1.9 2-0.7 4.2-0.6 6.1 0.3s3.4 2.5 4.1 4.6c0.7 2 0.6 4.2-0.3 6.1s-2.5 3.4-4.6 4.1c-4.2 1.5-8.7-0.7-10.2-4.9-0.2-0.5-0.8-0.8-1.3-0.6s-0.8 0.8-0.6 1.3c1.5 4.1 5.4 6.7 9.5 6.7 1.1 0 2.2-0.2 3.3-0.6 5.2-1.8 8-7.5 6.1-12.7z"></path>
</symbol>
<symbol id="icon-rotate-cw" viewBox="0 0 24 24">
<title>rotate-cw</title>
<path d="M24 10.1c0 0 0-0.1 0-0.1v-6c0-0.6-0.4-1-1-1s-1 0.4-1 1v3.7l-2.9-2.8c-1-1-2.3-1.9-3.7-2.4-5.3-1.8-11 1-12.8 6.2s0.9 10.9 6.1 12.8c1.1 0.3 2.2 0.5 3.3 0.5 4.1 0 8-2.6 9.4-6.7 0.2-0.5-0.1-1.1-0.6-1.3s-1.1 0.1-1.3 0.6c-1.5 4.2-6 6.3-10.2 4.9-4.2-1.5-6.3-6-4.9-10.2 1.5-4.1 6.1-6.3 10.3-4.8 1.1 0.4 2.2 1 3 1.9l2.8 2.6h-3.5c-0.6 0-1 0.4-1 1s0.4 1 1 1h6c0 0 0 0 0 0 0.1 0 0.2 0 0.2-0.1 0 0 0.1 0 0.1 0s0.1-0.1 0.1-0.1c0.1 0 0.2-0.1 0.2-0.2 0 0 0 0 0 0s0-0.1 0.1-0.1c0-0.1 0.1-0.1 0.1-0.2 0.2 0 0.2-0.1 0.2-0.2z"></path>
</symbol>
<symbol id="icon-save" viewBox="0 0 24 24">
<title>save</title>
<path d="M21.7 7.3l-5-5c-0.2-0.2-0.4-0.3-0.7-0.3h-11c-1.7 0-3 1.3-3 3v14c0 1.7 1.3 3 3 3h14c1.7 0 3-1.3 3-3v-11c0-0.3-0.1-0.5-0.3-0.7zM16 20h-8v-6h8v6zM20 19c0 0.6-0.4 1-1 1h-1v-7c0-0.6-0.4-1-1-1h-10c-0.6 0-1 0.4-1 1v7h-1c-0.6 0-1-0.4-1-1v-14c0-0.6 0.4-1 1-1h1v4c0 0.6 0.4 1 1 1h8c0.6 0 1-0.4 1-1s-0.4-1-1-1h-7v-3h7.6l4.4 4.4v10.6z"></path>
</symbol>
<symbol id="icon-search" viewBox="0 0 24 24">
<title>search</title>
<path d="M21.7 20.3l-3.7-3.7c1.2-1.5 2-3.5 2-5.6 0-5-4-9-9-9s-9 4-9 9c0 5 4 9 9 9 2.1 0 4.1-0.7 5.6-2l3.7 3.7c0.2 0.2 0.5 0.3 0.7 0.3s0.5-0.1 0.7-0.3c0.4-0.4 0.4-1 0-1.4zM4 11c0-3.9 3.1-7 7-7s7 3.1 7 7c0 1.9-0.8 3.7-2 4.9 0 0 0 0 0 0s0 0 0 0c-1.3 1.3-3 2-4.9 2-4 0.1-7.1-3-7.1-6.9z"></path>
</symbol>
<symbol id="icon-settings" viewBox="0 0 24 24">
<title>settings</title>
<path d="M12 8c-2.2 0-4 1.8-4 4s1.8 4 4 4c2.2 0 4-1.8 4-4s-1.8-4-4-4zM12 14c-1.1 0-2-0.9-2-2s0.9-2 2-2c1.1 0 2 0.9 2 2s-0.9 2-2 2z"></path>
<path d="M20.3 15.4c0.1-0.2 0.3-0.4 0.7-0.4 1.7 0 3-1.3 3-3s-1.3-3-3-3h-0.2c-0.2 0-0.4-0.1-0.5-0.3 0-0.1 0-0.1-0.1-0.2-0.1-0.2-0.1-0.5 0.2-0.8 1.2-1.2 1.2-3.1 0-4.2v0c0 0 0 0 0 0-0.6-0.6-1.3-0.9-2.1-0.9 0 0 0 0 0 0-0.8 0-1.6 0.3-2.2 0.9-0.2 0.2-0.5 0.2-0.7 0.1-0.2 0-0.4-0.3-0.4-0.6 0-1.7-1.3-3-3-3s-3 1.3-3 3v0.2c0 0.2-0.1 0.4-0.3 0.5-0.1 0-0.1 0-0.2 0.1-0.2 0.1-0.5 0-0.8-0.2-1.2-1.2-3.1-1.2-4.2 0-1.2 1.2-1.2 3.1 0.1 4.3 0.2 0.2 0.2 0.5 0.1 0.8-0.1 0.2-0.4 0.4-0.7 0.4-1.7 0-3 1.3-3 3s1.3 3 3 3h0.2c0.3 0 0.5 0.2 0.6 0.4s0.1 0.5-0.2 0.8c-0.6 0.6-0.9 1.3-0.9 2.1s0.3 1.5 0.9 2.1c0 0 0 0 0 0 1.2 1.2 3.1 1.2 4.3-0.1 0.2-0.2 0.5-0.2 0.8-0.1s0.4 0.3 0.4 0.7c0 1.7 1.3 3 3 3s3-1.3 3-3v-0.2c0-0.3 0.2-0.5 0.4-0.6s0.5-0.1 0.8 0.2c1.2 1.2 3.1 1.2 4.2 0 1.2-1.2 1.2-3.1-0.1-4.3-0.1-0.2-0.2-0.5-0.1-0.7 0 0 0 0 0 0zM18.5 14.6c-0.4 1-0.2 2.1 0.6 3 0.2 0.2 0.3 0.4 0.3 0.7s-0.1 0.5-0.3 0.7c-0.2 0.2-0.4 0.3-0.7 0.3 0 0 0 0 0 0-0.3 0-0.5-0.1-0.8-0.4-0.8-0.8-1.9-1-2.9-0.5-1 0.4-1.6 1.4-1.6 2.4v0.2c0 0.6-0.4 1-1 1s-1-0.4-1-1c0 0 0-0.1 0-0.1 0-1.1-0.7-2-1.7-2.4-0.3-0.2-0.7-0.2-1.1-0.2-0.7 0-1.4 0.3-1.9 0.8-0.4 0.4-1 0.4-1.4 0 0 0 0 0 0 0v0c-0.2-0.2-0.3-0.4-0.3-0.7s0.1-0.5 0.4-0.8c0.8-0.8 1-1.9 0.5-2.9-0.4-1-1.4-1.6-2.4-1.6h-0.2c-0.6 0-1-0.4-1-1s0.4-1 1-1c0 0 0.1 0 0.1 0 1.1 0 2-0.7 2.4-1.7s0.2-2.1-0.6-3c-0.4-0.4-0.4-1 0-1.4s1-0.4 1.5 0.1c0.7 0.7 1.8 0.9 2.7 0.6 0.1 0 0.2 0 0.3-0.1 1-0.4 1.6-1.4 1.6-2.4v-0.2c0-0.6 0.4-1 1-1s1 0.4 1 1.1c0 1.1 0.6 2 1.6 2.4s2.1 0.2 3-0.6c0.2-0.2 0.4-0.3 0.7-0.3v0c0.3 0 0.5 0.1 0.7 0.3 0 0 0 0 0 0 0.4 0.4 0.4 1-0.1 1.5-0.7 0.7-0.9 1.8-0.6 2.7 0 0.1 0 0.2 0.1 0.3 0.4 1 1.4 1.6 2.4 1.6h0.2c0.6 0 1 0.4 1 1s-0.4 1-1.1 1c-1 0-2 0.6-2.4 1.6z"></path>
</symbol>
<symbol id="icon-share" viewBox="0 0 24 24">
<title>share</title>
<path d="M20 11c-0.6 0-1 0.4-1 1v8c0 0.6-0.4 1-1 1h-12c-0.6 0-1-0.4-1-1v-8c0-0.6-0.4-1-1-1s-1 0.4-1 1v8c0 1.7 1.3 3 3 3h12c1.7 0 3-1.3 3-3v-8c0-0.6-0.4-1-1-1z"></path>
<path d="M8.7 6.7l2.3-2.3v10.6c0 0.6 0.4 1 1 1s1-0.4 1-1v-10.6l2.3 2.3c0.2 0.2 0.4 0.3 0.7 0.3s0.5-0.1 0.7-0.3c0.4-0.4 0.4-1 0-1.4l-4-4c-0.1-0.1-0.2-0.2-0.3-0.2-0.2-0.1-0.5-0.1-0.8 0-0.1 0.1-0.2 0.1-0.3 0.2l-4 4c-0.4 0.4-0.4 1 0 1.4s1 0.4 1.4 0z"></path>
</symbol>
<symbol id="icon-slack" viewBox="0 0 24 24">
<title>slack</title>
<path d="M23 8.7c-1.3-4.2-2.8-6.6-5.1-7.8-2.1-1.2-5-1.2-9.2 0.1-8.1 2.4-10.2 6.3-7.7 14.3 1.8 6 4.4 8.7 8.9 8.7 1.6 0 3.3-0.3 5.4-0.9 8-2.5 10.2-6.4 7.7-14.4zM14.7 21.1c-7 2.1-9.7 0.6-11.8-6.4-2.1-6.9-0.6-9.7 6.4-11.8 2-0.6 3.6-0.9 4.9-0.9 1.1 0 2.1 0.2 2.9 0.6 1.7 0.9 3 3 4.1 6.6 0 0 0 0 0 0 2 7 0.5 9.8-6.5 11.9z"></path>
<path d="M17.7 11.6l-1.9 0.7-1-2.8 1.9-0.7c0.5-0.2 0.8-0.7 0.6-1.3-0.2-0.5-0.7-0.8-1.3-0.6l-1.9 0.7-0.7-1.9c-0.2-0.5-0.7-0.8-1.3-0.6-0.5 0.2-0.8 0.7-0.6 1.3l0.7 1.9-2.8 1-0.6-2c-0.2-0.5-0.8-0.8-1.3-0.6-0.5 0.1-0.8 0.7-0.6 1.2l0.7 1.9-1.9 0.7c-0.5 0.2-0.8 0.7-0.6 1.3 0.1 0.4 0.5 0.7 0.9 0.7 0.1 0 0.2 0 0.3-0.1l1.9-0.7 1 2.8-1.9 0.7c-0.5 0.2-0.8 0.7-0.6 1.3 0.1 0.4 0.5 0.7 0.9 0.7 0.1 0 0.2 0 0.3-0.1l1.9-0.7 0.7 1.9c0.1 0.4 0.5 0.7 0.9 0.7 0.1 0 0.2 0 0.3-0.1 0.5-0.2 0.8-0.7 0.6-1.3l-0.7-1.9 2.8-1 0.7 1.9c0.1 0.4 0.5 0.7 0.9 0.7 0.1 0 0.2 0 0.3-0.1 0.5-0.2 0.8-0.7 0.6-1.3l-0.7-1.9 1.9-0.7c0.5-0.2 0.8-0.7 0.6-1.3 0.1-0.3-0.5-0.6-1-0.4zM11.1 13.9l-1-2.8 2.8-1 1 2.8-2.8 1z"></path>
</symbol>
<symbol id="icon-slash" viewBox="0 0 24 24">
<title>slash</title>
<path d="M19.8 19.8c2-2 3.2-4.7 3.2-7.8 0-6.1-4.9-11-11-11-3 0-5.8 1.2-7.8 3.2 0 0 0 0 0 0s0 0 0 0c-2 2-3.2 4.8-3.2 7.8 0 6.1 4.9 11 11 11 3 0 5.8-1.2 7.8-3.2 0 0 0 0 0 0s0 0 0 0zM21 12c0 2.1-0.7 4.1-2 5.6l-12.6-12.6c1.5-1.3 3.5-2 5.6-2 5 0 9 4 9 9zM3 12c0-2.1 0.7-4.1 2-5.6l12.6 12.6c-1.5 1.2-3.5 2-5.6 2-5 0-9-4-9-9z"></path>
</symbol>
<symbol id="icon-star" viewBox="0 0 24 24">
<title>star</title>
<path d="M23 9c-0.1-0.4-0.4-0.6-0.8-0.7l-6.4-0.9-2.9-5.8c-0.3-0.7-1.5-0.7-1.8 0l-2.9 5.7-6.3 1c-0.4 0-0.7 0.3-0.9 0.7-0.1 0.4 0 0.8 0.3 1l4.6 4.5-1.1 6.4c-0.1 0.4 0.1 0.8 0.4 1s0.7 0.3 1.1 0.1l5.7-3 5.7 3c0.2 0 0.3 0 0.5 0s0.4-0.1 0.6-0.2c0.3-0.2 0.5-0.6 0.4-1l-1.1-6.4 4.6-4.5c0.3-0.2 0.4-0.6 0.3-0.9zM16.3 13.4c-0.2 0.3-0.3 0.6-0.3 0.9l0.8 4.9-4.4-2.3c-0.3-0.2-0.6-0.2-0.9 0l-4.4 2.3 0.9-4.9c0-0.3-0.1-0.6-0.3-0.9l-3.6-3.4 4.9-0.7c0.3 0 0.6-0.3 0.8-0.5l2.2-4.5 2.2 4.4c0.1 0.3 0.4 0.5 0.8 0.5l4.9 0.7-3.6 3.5z"></path>
</symbol>
<symbol id="icon-toggle-left" viewBox="0 0 24 24">
<title>toggle-left</title>
<path d="M16 4h-8c-4.4 0-8 3.6-8 8s3.6 8 8 8h8c4.4 0 8-3.6 8-8s-3.6-8-8-8zM16 18h-8c-3.3 0-6-2.7-6-6s2.7-6 6-6h8c3.3 0 6 2.7 6 6s-2.7 6-6 6z"></path>
<path d="M8 8c-2.2 0-4 1.8-4 4s1.8 4 4 4 4-1.8 4-4c0-2.2-1.8-4-4-4zM8 14c-1.1 0-2-0.9-2-2s0.9-2 2-2 2 0.9 2 2c0 1.1-0.9 2-2 2z"></path>
</symbol>
<symbol id="icon-toggle-right" viewBox="0 0 24 24">
<title>toggle-right</title>
<path d="M16 4h-8c-4.4 0-8 3.6-8 8s3.6 8 8 8h8c4.4 0 8-3.6 8-8s-3.6-8-8-8zM16 18h-8c-3.3 0-6-2.7-6-6s2.7-6 6-6h8c3.3 0 6 2.7 6 6s-2.7 6-6 6z"></path>
<path d="M16 8c-2.2 0-4 1.8-4 4s1.8 4 4 4 4-1.8 4-4c0-2.2-1.8-4-4-4zM16 14c-1.1 0-2-0.9-2-2s0.9-2 2-2 2 0.9 2 2c0 1.1-0.9 2-2 2z"></path>
</symbol>
<symbol id="icon-trash" viewBox="0 0 24 24">
<title>trash</title>
<path d="M21 5h-4v-1c0-1.7-1.3-3-3-3h-4c-1.7 0-3 1.3-3 3v1h-4c-0.6 0-1 0.4-1 1s0.4 1 1 1h1v13c0 1.7 1.3 3 3 3h10c1.7 0 3-1.3 3-3v-13h1c0.6 0 1-0.4 1-1s-0.4-1-1-1zM9 4c0-0.6 0.4-1 1-1h4c0.6 0 1 0.4 1 1v1h-6v-1zM18 20c0 0.6-0.4 1-1 1h-10c-0.6 0-1-0.4-1-1v-13h12v13z"></path>
</symbol>
<symbol id="icon-trash-2" viewBox="0 0 24 24">
<title>trash-2</title>
<path d="M21 5h-4v-1c0-1.7-1.3-3-3-3h-4c-1.7 0-3 1.3-3 3v1h-4c-0.6 0-1 0.4-1 1s0.4 1 1 1h1v13c0 1.7 1.3 3 3 3h10c1.7 0 3-1.3 3-3v-13h1c0.6 0 1-0.4 1-1s-0.4-1-1-1zM9 4c0-0.6 0.4-1 1-1h4c0.6 0 1 0.4 1 1v1h-6v-1zM18 20c0 0.6-0.4 1-1 1h-10c-0.6 0-1-0.4-1-1v-13h12v13z"></path>
<path d="M10 10c-0.6 0-1 0.4-1 1v6c0 0.6 0.4 1 1 1s1-0.4 1-1v-6c0-0.6-0.4-1-1-1z"></path>
<path d="M14 10c-0.6 0-1 0.4-1 1v6c0 0.6 0.4 1 1 1s1-0.4 1-1v-6c0-0.6-0.4-1-1-1z"></path>
</symbol>
<symbol id="icon-unlock" viewBox="0 0 24 24">
<title>unlock</title>
<path d="M19 10h-11v-3c0-1.1 0.4-2.1 1.2-2.8 0.7-0.8 1.7-1.2 2.8-1.2 0 0 0 0 0 0 1.9 0 3.5 1.3 3.9 3.2 0.1 0.5 0.7 0.9 1.2 0.8s0.9-0.6 0.8-1.2c-0.6-2.8-3.1-4.8-5.9-4.8 0 0 0 0 0 0-1.6 0-3.1 0.6-4.2 1.8-1.2 1.1-1.8 2.6-1.8 4.2v3h-1c-1.7 0-3 1.3-3 3v7c0 1.7 1.3 3 3 3h14c1.7 0 3-1.3 3-3v-7c0-1.7-1.3-3-3-3zM20 20c0 0.6-0.4 1-1 1h-14c-0.6 0-1-0.4-1-1v-7c0-0.6 0.4-1 1-1h14c0.6 0 1 0.4 1 1v7z"></path>
</symbol>
<symbol id="icon-user" viewBox="0 0 24 24">
<title>user</title>
<path d="M16 14h-8c-2.8 0-5 2.2-5 5v2c0 0.6 0.4 1 1 1s1-0.4 1-1v-2c0-1.7 1.3-3 3-3h8c1.7 0 3 1.3 3 3v2c0 0.6 0.4 1 1 1s1-0.4 1-1v-2c0-2.8-2.2-5-5-5z"></path>
<path d="M12 12c2.8 0 5-2.2 5-5s-2.2-5-5-5-5 2.2-5 5 2.2 5 5 5zM12 4c1.7 0 3 1.3 3 3s-1.3 3-3 3-3-1.3-3-3 1.3-3 3-3z"></path>
</symbol>
<symbol id="icon-user-check" viewBox="0 0 24 24">
<title>user-check</title>
<path d="M12 14h-7c-2.8 0-5 2.2-5 5v2c0 0.6 0.4 1 1 1s1-0.4 1-1v-2c0-1.7 1.3-3 3-3h7c1.7 0 3 1.3 3 3v2c0 0.6 0.4 1 1 1s1-0.4 1-1v-2c0-2.8-2.2-5-5-5z"></path>
<path d="M8.5 12c2.8 0 5-2.2 5-5s-2.2-5-5-5-5 2.2-5 5 2.2 5 5 5zM8.5 4c1.7 0 3 1.3 3 3s-1.3 3-3 3-3-1.3-3-3 1.3-3 3-3z"></path>
<path d="M23.7 8.3c-0.4-0.4-1-0.4-1.4 0l-3.3 3.3-1.3-1.3c-0.4-0.4-1-0.4-1.4 0s-0.4 1 0 1.4l2 2c0.2 0.2 0.5 0.3 0.7 0.3s0.5-0.1 0.7-0.3l4-4c0.4-0.4 0.4-1 0-1.4z"></path>
</symbol>
<symbol id="icon-user-minus" viewBox="0 0 24 24">
<title>user-minus</title>
<path d="M12 14h-7c-2.8 0-5 2.2-5 5v2c0 0.6 0.4 1 1 1s1-0.4 1-1v-2c0-1.7 1.3-3 3-3h7c1.7 0 3 1.3 3 3v2c0 0.6 0.4 1 1 1s1-0.4 1-1v-2c0-2.8-2.2-5-5-5z"></path>
<path d="M8.5 12c2.8 0 5-2.2 5-5s-2.2-5-5-5-5 2.2-5 5 2.2 5 5 5zM8.5 4c1.7 0 3 1.3 3 3s-1.3 3-3 3-3-1.3-3-3 1.3-3 3-3z"></path>
<path d="M23 10h-6c-0.6 0-1 0.4-1 1s0.4 1 1 1h6c0.6 0 1-0.4 1-1s-0.4-1-1-1z"></path>
</symbol>
<symbol id="icon-user-plus" viewBox="0 0 24 24">
<title>user-plus</title>
<path d="M12 14h-7c-2.8 0-5 2.2-5 5v2c0 0.6 0.4 1 1 1s1-0.4 1-1v-2c0-1.7 1.3-3 3-3h7c1.7 0 3 1.3 3 3v2c0 0.6 0.4 1 1 1s1-0.4 1-1v-2c0-2.8-2.2-5-5-5z"></path>
<path d="M8.5 12c2.8 0 5-2.2 5-5s-2.2-5-5-5-5 2.2-5 5 2.2 5 5 5zM8.5 4c1.7 0 3 1.3 3 3s-1.3 3-3 3-3-1.3-3-3 1.3-3 3-3z"></path>
<path d="M23 10h-2v-2c0-0.6-0.4-1-1-1s-1 0.4-1 1v2h-2c-0.6 0-1 0.4-1 1s0.4 1 1 1h2v2c0 0.6 0.4 1 1 1s1-0.4 1-1v-2h2c0.6 0 1-0.4 1-1s-0.4-1-1-1z"></path>
</symbol>
<symbol id="icon-user-x" viewBox="0 0 24 24">
<title>user-x</title>
<path d="M12 14h-7c-2.8 0-5 2.2-5 5v2c0 0.6 0.4 1 1 1s1-0.4 1-1v-2c0-1.7 1.3-3 3-3h7c1.7 0 3 1.3 3 3v2c0 0.6 0.4 1 1 1s1-0.4 1-1v-2c0-2.8-2.2-5-5-5z"></path>
<path d="M8.5 12c2.8 0 5-2.2 5-5s-2.2-5-5-5-5 2.2-5 5 2.2 5 5 5zM8.5 4c1.7 0 3 1.3 3 3s-1.3 3-3 3-3-1.3-3-3 1.3-3 3-3z"></path>
<path d="M21.9 10.5l1.8-1.8c0.4-0.4 0.4-1 0-1.4s-1-0.4-1.4 0l-1.8 1.8-1.8-1.8c-0.4-0.4-1-0.4-1.4 0s-0.4 1 0 1.4l1.8 1.8-1.8 1.8c-0.4 0.4-0.4 1 0 1.4 0.2 0.2 0.5 0.3 0.7 0.3s0.5-0.1 0.7-0.3l1.8-1.8 1.8 1.8c0.2 0.2 0.5 0.3 0.7 0.3s0.5-0.1 0.7-0.3c0.4-0.4 0.4-1 0-1.4l-1.8-1.8z"></path>
</symbol>
<symbol id="icon-users" viewBox="0 0 24 24">
<title>users</title>
<path d="M13 14h-8c-2.8 0-5 2.2-5 5v2c0 0.6 0.4 1 1 1s1-0.4 1-1v-2c0-1.7 1.3-3 3-3h8c1.7 0 3 1.3 3 3v2c0 0.6 0.4 1 1 1s1-0.4 1-1v-2c0-2.8-2.2-5-5-5z"></path>
<path d="M9 12c2.8 0 5-2.2 5-5s-2.2-5-5-5-5 2.2-5 5 2.2 5 5 5zM9 4c1.7 0 3 1.3 3 3s-1.3 3-3 3-3-1.3-3-3 1.3-3 3-3z"></path>
<path d="M20.2 14.2c-0.5-0.1-1.1 0.2-1.2 0.7s0.2 1.1 0.7 1.2c1.3 0.3 2.2 1.5 2.2 2.9v2c0 0.6 0.4 1 1 1s1-0.4 1-1v-2c0.1-2.3-1.4-4.3-3.7-4.8z"></path>
<path d="M16.2 2.2c-0.5-0.2-1 0.1-1.2 0.7-0.1 0.5 0.2 1.1 0.7 1.2 1.6 0.4 2.6 2 2.2 3.7-0.3 1.1-1.1 1.9-2.2 2.2-0.5 0.1-0.9 0.7-0.7 1.2 0.1 0.5 0.5 0.8 1 0.8 0.1 0 0.2 0 0.2 0 1.8-0.5 3.2-1.8 3.6-3.6 0.7-2.8-0.9-5.6-3.6-6.2z"></path>
</symbol>
<symbol id="icon-x" viewBox="0 0 24 24">
<title>x</title>
<path d="M13.4 12l5.3-5.3c0.4-0.4 0.4-1 0-1.4s-1-0.4-1.4 0l-5.3 5.3-5.3-5.3c-0.4-0.4-1-0.4-1.4 0s-0.4 1 0 1.4l5.3 5.3-5.3 5.3c-0.4 0.4-0.4 1 0 1.4 0.2 0.2 0.4 0.3 0.7 0.3s0.5-0.1 0.7-0.3l5.3-5.3 5.3 5.3c0.2 0.2 0.5 0.3 0.7 0.3s0.5-0.1 0.7-0.3c0.4-0.4 0.4-1 0-1.4l-5.3-5.3z"></path>
</symbol>
<symbol id="icon-x-circle" viewBox="0 0 24 24">
<title>x-circle</title>
<path d="M12 1c-6.1 0-11 4.9-11 11s4.9 11 11 11 11-4.9 11-11-4.9-11-11-11zM12 21c-5 0-9-4-9-9s4-9 9-9c5 0 9 4 9 9s-4 9-9 9z"></path>
<path d="M15.7 8.3c-0.4-0.4-1-0.4-1.4 0l-2.3 2.3-2.3-2.3c-0.4-0.4-1-0.4-1.4 0s-0.4 1 0 1.4l2.3 2.3-2.3 2.3c-0.4 0.4-0.4 1 0 1.4 0.2 0.2 0.4 0.3 0.7 0.3s0.5-0.1 0.7-0.3l2.3-2.3 2.3 2.3c0.2 0.2 0.5 0.3 0.7 0.3s0.5-0.1 0.7-0.3c0.4-0.4 0.4-1 0-1.4l-2.3-2.3 2.3-2.3c0.4-0.4 0.4-1 0-1.4z"></path>
</symbol>
<symbol id="icon-x-square" viewBox="0 0 24 24">
<title>x-square</title>
<path d="M19 2h-14c-1.7 0-3 1.3-3 3v14c0 1.7 1.3 3 3 3h14c1.7 0 3-1.3 3-3v-14c0-1.7-1.3-3-3-3zM20 19c0 0.6-0.4 1-1 1h-14c-0.6 0-1-0.4-1-1v-14c0-0.6 0.4-1 1-1h14c0.6 0 1 0.4 1 1v14z"></path>
<path d="M15.7 8.3c-0.4-0.4-1-0.4-1.4 0l-2.3 2.3-2.3-2.3c-0.4-0.4-1-0.4-1.4 0s-0.4 1 0 1.4l2.3 2.3-2.3 2.3c-0.4 0.4-0.4 1 0 1.4 0.2 0.2 0.4 0.3 0.7 0.3s0.5-0.1 0.7-0.3l2.3-2.3 2.3 2.3c0.2 0.2 0.5 0.3 0.7 0.3s0.5-0.1 0.7-0.3c0.4-0.4 0.4-1 0-1.4l-2.3-2.3 2.3-2.3c0.4-0.4 0.4-1 0-1.4z"></path>
</symbol>
</defs>
</svg>
